Patient4_TMGait_0pt4_01_right_06_EMG.mot
version=1
nRows=33
nColumns=33
inDegrees=no
endheader
time	1LAddLong	2LGlutMax	3LGlutMed	4LIliopsoas	5LSemiMemb	6LBicFemLong	7LRecFem	8LVastMed	9LVastLat	10LGasMed	11LTibAnt	12lTibPost	13LPeroneusLong	14LSol	15LExtDigLong	16LFlexDigLong	17RAddLong	18RGlutMax	19RGlutMed	20RIliopsoas	21RSemiMemb	22RBicFemLong	23RRecFem	24RVastMed	25RVastLat	26RGasMed	27RTibAnt	28RTibPost	29RPeroneusLong	30RSol	31RExtDigLong	32RFlexDigLong
8.723	0.01358	0.13825	0.022888	-0.018616	0.004883	0.004578	-0.09201	-0.001068	-0.044556	-0.018463	-0.044861	0.015869	0.004272	-0.004425	0.006866	0.003967	-0.082703	-0.059204	0.023956	0.010071	-0.016937	0.06958	-0.068359	-0.003967	-0.003662	-0.007172	-0.060272	-0.005493	-0.089569	0.025024	-0.000916	0.038757
8.724	0.010681	0.15259	0.045929	-0.013123	0.02121	-0.002136	-0.086975	0.001526	-0.031128	-0.009003	0.025787	0.007019	0.006561	-0.003662	-0.000916	-0.006409	-0.065002	-0.026855	-0.028839	0.007477	0.069885	0.10956	-0.044098	-0.011597	-0.024872	-0.005493	0.004578	-0.007324	-0.12009	0.009003	-0.002289	0.027771
8.725	0.014191	0.10742	0.049133	0	0.009613	0.001678	-0.089111	-0.005646	0.080414	0.000458	0.079651	0.010071	-0.037079	-0.001221	0.011597	-0.002136	-0.039673	-0.017548	0.094757	0.059204	0.12314	0.15701	-0.061798	-0.037994	-0.004272	-0.003357	0.32745	-0.007935	-0.17517	-0.020142	-0.00412	0.008392
8.726	0.007477	0.11749	0.032806	-0.012817	0.015717	0.006866	0.007172	-0.008087	0.17609	0.00946	0.007172	0.012817	-0.103	0.0177	0.1831	0.021515	-0.014496	-0.008698	0.15717	0.04425	0.10742	0.1535	-0.065613	-0.026703	0.001831	-0.000305	0.1503	-0.007019	-0.049286	0.080872	-0.003357	-0.015411
8.727	0.014343	0.068817	-0.008087	0.018005	0.014191	-0.009155	0.057831	-0.007172	0.13275	0.008392	0.23453	0.010376	-0.14526	-0.001831	0.035248	-0.006409	0.065308	-0.008392	-0.036011	0.03418	0.046539	0.15869	-0.065918	-0.018311	0.013733	0.00412	-0.21713	-0.006256	0.056	-0.008545	-0.005035	-0.029449
8.728	0.01297	0.045776	-0.037842	0.020447	0.013123	-0.003662	-0.044098	-0.019531	0.11337	-0.031433	0.13687	0.00946	-0.068054	0.018158	0.16419	0.006409	0.07431	-0.031586	-0.12283	0.021973	0.026398	0.17425	-0.067749	-0.039215	-0.007019	0.011444	-0.1294	-0.005035	0.064697	-0.10437	-0.005951	-0.057526
8.729	0.017548	0.030975	-0.041046	0.010529	0.023346	-0.011597	-0.112	-0.007324	0.15533	-0.029907	-0.14191	0.018768	-0.016632	0.021973	0.035706	0.003815	0.050201	0.055695	-0.21362	0.042419	0.010223	0.21576	-0.036774	-0.034943	0.011749	0.006409	-0.040741	-0.004272	0.09491	-0.098267	-0.008545	-0.067749
8.73	0.013428	-0.020599	-0.0737	-0.000458	0.013275	-0.009613	-0.061188	-0.006714	0.12543	-0.011902	-0.30884	0.009613	0.031891	0.053864	-0.089111	-0.011749	0.023193	-0.020142	-0.086212	0.014343	-0.028534	0.22232	-0.028076	-0.058136	-0.013123	0.006866	0.17487	-0.002594	0.036469	-0.056305	-0.00473	-0.069275
8.731	0.006714	-0.00885	-0.17425	-0.010986	0.003052	0.005341	-0.026093	-0.009613	0.06073	-0.028992	-0.21622	0.015869	0.026245	0.050201	-0.12863	-0.022125	0.000305	0.038147	0.061646	-0.010223	-0.086517	0.21545	-0.032349	-0.10925	-0.018005	0.001221	0.30563	-0.002747	0.1387	0.11307	-0.007019	-0.081635
8.732	0.012207	-0.034332	-0.062866	-0.023346	0.007782	0.007019	-0.028839	-0.003052	0.007172	-0.02121	-0.064087	0.010986	0.035858	0.000763	-0.1059	-0.024261	-0.011749	0.00885	0.076752	-0.00412	-0.11749	0.1973	-0.004578	-0.084381	-0.009155	-0.004272	0.18845	-0.006866	0.42862	0.23239	-0.003052	-0.091095
8.733	-0.016174	-0.022278	0.005035	0.00473	0.012817	-0.010071	-0.040588	-0.005646	0.025635	-0.001068	0.06012	0.011139	0.050659	-0.077362	-0.10498	0.00351	-0.031433	0.024872	-0.005341	-0.000153	-0.056	0.14984	-0.022888	-0.077362	0.003662	-0.013428	0.077515	-0.005035	0.59341	0.091248	-0.007019	-0.10635
8.734	0.006714	-0.039215	0.097809	-0.001221	0.011139	0.024872	-0.018311	-0.001678	0.02243	-0.002747	0.007782	0.007477	0.18845	-0.11169	-0.006866	0.008087	-0.058289	0.009766	-0.089569	-0.021667	0.23041	0.17181	-0.045624	-0.045929	0	-0.010834	-0.036316	0.000763	-0.19333	0.037079	-0.002289	-0.12619
8.735	0.013885	-0.028229	0.011902	-0.009155	0.005798	0.024261	0.008545	-0.001068	0.04364	0.008087	-0.028687	0.00885	0.20508	-0.048828	-0.011444	0.002289	-0.046234	0.007629	-0.067139	-0.06012	0.057983	0.21027	-0.016327	-0.06073	-0.001068	-0.007782	0.089417	-0.007782	-0.31967	0.047455	-0.006104	-0.15503
8.736	0.013275	-0.077057	-0.002899	-0.007935	0.01236	0.020752	-0.004272	-0.009766	0.052795	0.001526	-0.015564	0.008087	0.012207	0.00061	-0.022888	0.008087	-0.048065	-0.003052	0.045319	-0.12009	-0.079346	0.26154	-0.013123	-0.10666	-0.025177	-0.005646	0.046082	-0.005646	0.010071	0.011749	-0.002594	-0.18127
8.737	0.00412	-0.078125	-0.079651	0.003967	0.020752	-0.00473	-0.029602	0.006409	0.035858	-0.030975	0.033112	0.007935	-0.103	-0.007935	-0.020905	-0.001678	-0.028839	0.022125	-0.004272	-0.021057	-0.19913	0.30716	-0.000153	-0.12009	-0.036469	-0.008392	-0.033112	-0.006714	-0.027161	0.001526	-0.000458	-0.1944
8.738	0.010376	-0.081635	-0.004272	0.00824	0.01236	-0.003357	-0.010529	0.000458	-0.029144	-0.043182	-0.008392	0.007019	-0.13123	-0.029602	0.053711	0.000763	-0.028687	0.007172	-0.12497	0.064545	-0.26306	0.31555	-0.042419	-0.070648	0.001526	-0.009613	0.013275	-0.001984	-0.063477	-0.041656	-0.002136	-0.18845
8.739	0.001831	-0.080719	-0.061035	0.010071	-0.011597	-0.022583	-0.059052	-0.007324	-0.065613	-0.029755	0.031128	0.011749	-0.004272	-0.00351	0.19424	-0.00473	-0.039063	0.003815	-0.3157	0.11749	-0.25436	0.3064	-0.074158	-0.071259	-0.009766	-0.006409	0.1236	-0.005951	0.014343	-0.017548	0.001373	-0.17105
8.74	0.001831	-0.10651	-0.010223	0.016632	-0.016327	-0.023651	-0.029907	-0.005493	0.00061	-0.007629	0.18662	0.007629	-0.083618	0.024414	0.17578	0.002594	-0.017548	0.020752	-0.21957	0.10773	0.14664	0.29831	-0.044861	-0.014801	-0.005493	-0.014801	0.047913	-0.003204	0.016022	-0.046234	-0.000916	-0.13748
8.741	0.00946	-0.12268	-0.004578	0.005188	-0.024109	-0.014038	-0.022736	-0.0177	0.050659	-0.053101	0.15595	0.002747	-0.033264	0.005951	0.53177	0.006866	0.011597	0.039673	-0.22736	0.062256	0.33646	0.2507	-0.029297	-0.045471	-0.011597	-0.016785	0.083923	-0.005188	-0.26718	-0.04364	-0.005341	-0.10712
8.742	0.016022	-0.12497	-0.049896	0.008392	0.011597	-0.040283	0.018921	-0.0177	0.041046	-0.085907	0.013428	0.002594	-0.079346	0.072937	-0.29221	-0.021973	0.042114	0.011444	-0.086823	0.050049	0.23148	0.21179	-0.028534	-0.13168	-0.016174	-0.010223	0.20859	-0.002136	-0.39429	-0.0737	-0.002441	-0.072021
8.743	0.002594	-0.1413	-0.080719	0.012207	0.026855	-0.015564	0.041351	-0.00885	0.003662	-0.093689	0.003204	0.006104	-0.14175	0.071411	-0.3598	-1.0446	0.041351	0.011139	-0.27771	0.103	0.001526	0.28625	-0.06134	-0.11948	-0.012054	0.000305	0.27313	-0.005646	-0.26215	-0.056763	-0.002289	-0.052948
8.744	0.004578	-0.11673	-0.067444	0.004578	0.038757	-0.011902	-0.007782	0.001221	-0.007019	-0.098267	-0.015564	0.007629	-0.17456	-0.035095	-0.37018	0.41992	0.015259	0.02594	0.042877	0.04715	0.037231	0.36758	-0.092468	-0.097351	0.005341	-0.004883	0.088196	-0.007629	0.37415	-0.04715	-0.00061	-0.033112
8.745	0.01709	-0.099792	0.004883	-0.00473	0.052643	-0.019073	-0.040894	0.016785	0.006256	-0.11017	-0.050507	-0.006256	-0.15533	-0.056152	-0.41794	0.58884	-0.020142	0.055389	0.35736	-0.075684	-0.044861	0.40924	-0.10132	-0.034943	0.016327	-0.00946	-0.19592	-0.009308	0.13351	-0.008392	-0.003204	-0.014801
8.746	0.008392	-0.11993	0.063477	0.007629	0.012054	-0.028687	-0.068207	0.00351	0.159	-0.071869	-0.058289	0.007629	-0.13962	-0.005951	-0.063934	-0.34546	-0.027771	-0.016174	0.2919	-0.14633	0.06546	0.36713	-0.11765	-0.028534	-0.009308	-0.005798	-0.17487	-0.006866	-0.027771	-0.029297	-0.002441	-0.007629
8.747	0.016937	-0.15762	0.022125	0.002747	-0.00946	0.001373	-0.032959	-0.001678	0.23025	0.009613	-0.019226	0.005035	-0.028992	-0.054779	0.40054	-0.16708	-0.032196	-0.014496	-0.04837	-0.038452	0.058289	0.28763	-0.10025	0.006714	0.003204	-0.007324	0.091705	-0.004425	-0.20157	-0.041504	-0.001526	-0.000153
8.748	0.004578	-0.17731	-0.024719	0.007629	0.007172	0.003204	-0.027924	-0.001678	0.22369	-0.004425	-0.00412	0.001678	0.14908	-0.17883	0.20554	0.37445	-0.011444	-0.007172	0.056	0.048828	-0.016937	0.26886	-0.11871	-0.078735	-0.000305	-0.007019	0.10391	-0.004578	-0.233	0.008087	-0.002899	0.016785
8.749	0.009766	-0.17059	-0.12894	-0.00473	0.041046	-0.01236	-0.067902	-0.012207	0.15656	0.051727	0.007477	0.014038	0.15701	-0.18341	0.015717	0.000305	0.00824	-0.049896	-0.082245	0.042267	-0.012665	0.26123	-0.12634	-0.095062	0.011139	-0.006104	0.061951	-0.007629	0.15045	0.045166	-0.003662	0.01358
8.75	0.020142	-0.20432	-0.061035	-0.009918	0.039673	0.004883	-0.12497	0.006104	0.15045	0.11978	0.02594	0.002899	0.13199	-0.099487	-0.056305	-0.006714	0.036163	-0.012512	-0.00412	-0.003052	-0.066528	0.2533	-0.13077	-0.066528	0.011444	-0.008545	-0.054016	-0.004425	0.4184	0.035095	-0.003815	0.021667
8.751	0.004272	-0.19028	0.070953	-0.010834	0.036163	-0.001678	-0.081635	-0.005188	-0.032196	0.15213	-0.00473	0.011902	0.053711	0.045166	0.13916	-0.027771	0.034943	-0.046082	0.033569	-0.094452	0.015564	0.21057	-0.10559	-0.06073	0.013733	-0.005798	-0.14465	-0.008698	0.11826	0.002441	-0.002899	0.028381
8.752	0.000153	-0.2095	0.010986	-0.000458	0.03067	0.015411	-0.006104	-0.010834	-0.37964	0.14679	-0.001984	0.01358	0.001068	-0.06424	0.045166	-0.047913	0.040436	-0.05722	0.075226	-0.059509	0.083923	0.2478	-0.11276	-0.032501	0.00473	-0.010376	-0.10483	-0.005341	0.001068	-0.002899	-0.004578	0.026398
8.753	0.004425	-0.18845	-0.057983	0.001831	0.018463	0.015411	0.000916	-0.008392	-0.26108	0.1651	0.039825	0.007935	-0.037689	-0.15671	-0.031128	-0.031433	0.05661	-0.080719	0.12253	-0.039063	0.0383	0.31082	-0.053864	-0.10162	-0.008392	-0.007629	0.005188	-0.007629	0.007782	0.007629	-0.002747	0.016022
8.754	0.004578	-0.17334	-0.092468	0.001221	-0.011139	0.013123	-0.049744	-0.010071	-0.16159	0.16998	0.098267	0.016174	-0.090179	-0.23163	-0.01709	-0.043335	0.018311	-0.02655	-0.027924	0.039368	-0.007324	0.3122	-0.092468	-0.11154	0.004578	-0.010223	0.020752	-0.010071	0.30731	-0.01236	-0.000763	0.018616
8.755	0.009766	-0.1561	-0.10819	-0.005798	0.016479	-0.00412	-0.11215	-0.007019	-0.033417	0.14877	0.13534	0.013428	-0.11093	-0.16113	0.10239	-0.03067	-0.032196	-0.041656	-0.072479	0.18127	0.030365	0.39597	-0.10269	-0.073547	0.010986	-0.005341	0.030212	0.001221	0.80658	-0.014191	-0.003052	0.017853
